<svg width="818" height="720" xmlns="http://www.w3.org/2000/svg" xmlns:xlink="http://www.w3.org/1999/xlink" overflow="hidden"><defs><clipPath id="clip0"><rect x="231" y="7" width="818" height="720"/></clipPath></defs><g clip-path="url(#clip0)" transform="translate(-231 -7)"><path d="M755.681 704.767C753.081 702.383 747.912 703.711 744.537 699.538 743.511 698.275 739.907 699.736 737.298 697.494 734.225 694.847 730.112 694.778 726.758 692.868 721.589 689.924 703.375 691.364 700.059 687.501 699.9 687.311 699.391 687.307 699.081 687.376 695.369 688.234 687.971 683.656 682.75 684.578 680.552 684.966 566.907 660.315 562.924 661.372 559.04 662.406 561.725 661.561 490.717 654.306 476.262 652.827 457.604 649.309 433.165 652.357 430.151 652.732 427.077 653.038 424.089 651.887 422.819 651.4 421.697 652.465 420.374 652.426 390.19 651.594 390.024 653.991 363.035 647.516 321.685 637.596 332.118 643.024 305.723 635.333 297.606 632.97 255.639 622.309 255.639 622.309 254.956 621.783 253.912 622.244 253.223 623.387 250.754 627.487 247.153 629.707 242.201 629.961 235.599 630.302 228.138 632.957 216.304 632.354 211.871 632.125 197.292 624.732 185.769 620.416 182.054 619.024 179.559 616.006 176.102 614.303 165.858 609.246 155.723 603.974 145.545 598.783 140.492 596.21 137.586 598.486 137.765 601.611 137.981 605.362 136.325 609.578 140.789 613.674 177.079 646.973 178.023 647.598 180.851 651.241 182.479 653.336 184.945 655.155 188.19 655.198 194.932 655.293 199.672 660.16 199.843 666.916 200.031 674.378 205.301 685.695 181.976 691.045 177.508 692.071 173.509 689.644 169.32 688.639 153.38 684.824 137.283 670.102 131.356 667.058 126.143 664.385 126.271 665.278 92.9495 613.027 87.1826 603.987 76.6105 588.984 75.7931 584.66 67.3934 540.2 69.439 552.181 68.8463 526.18 68.4647 509.449 69.5089 512.363 65.8091 506.418 52.2766 484.682 45.0185 471.727 39.9603 457.777 33.6764 440.446 25.1909 440.752 22.065 425.803 21.5339 423.264 16.5593 397.384 17.0762 394.824 18.5049 387.746 18.6601 380.468 20.6009 373.462 25.0457 357.418 17.0167 372.82 34.008 325.515 52.8112 273.165 43.3729 290.013 68.5022 203.749 114.2 46.874 112.458 47.277 120.107 41.7593 127 36.7873 132.829 21.8205 151.842 17.7185 159.26 16.1183 166.822 14.0675 174.44 15.4492 223.757 24.3964 189.515 11.2554 258.852 35.1159 272.359 39.7637 268.777 58.2358 254.32 57.1076 243.756 56.2833 193.782 48.6609 184.416 47.5167 181.181 47.1214 166.839 48.0849 166.816 48.0819 158.243 46.9925 154.55 52.3046 147.89 58.2436 140.681 64.671 142.826 62.509 133.234 95.218 123.61 128.038 123.763 124.717 121.089 145.014 107.049 251.589 106.61 227.416 122.455 268.223 123.548 271.038 119.082 268.267 196.93 303.003 203.562 305.962 236.071 330.304 236.071 330.304 242.471 332.108 246.567 337.121 251.198 341.313 409.503 484.591 346.908 424.954 382.843 451.431 386.453 454.091 384.498 452.685 442.295 473.352 444.175 474.025 445.943 474.146 447.745 473.335 457.716 468.856 468.326 467.407 479.099 466.774 484.893 466.433 481.699 464.579 495.322 453.966 498.232 451.694 499.667 451.616 513.799 449.646 516.64 449.249 516.549 448.883 528.319 436.76 531.781 433.195 525.797 433.712 536.963 425.131 540.325 422.549 544.145 420.62 547.404 417.812 550.085 415.503 552.366 415.901 554.767 418.477 556.211 420.028 558.367 420.408 559.772 422.263 568.515 433.785 570.21 459.656 586.031 465.618 594.222 468.701 590.743 473.232 597.55 476.06 615.325 483.436 620.524 494.278 624.585 499.585 630.039 506.716 624.197 509.121 628.97 512.419 630.668 513.596 630.866 514.95 630.203 517.002 623.632 537.281 641.502 541.869 634.591 552.754 632.535 555.992 631.617 559.647 631.108 563.346 630.259 569.455 626.064 573.654 619.903 573.87 617.856 573.939 616.334 574.206 615.579 576.443 615.144 577.741 610.88 578.983 609.203 578.62 607.789 578.314 597.615 575.374 597.749 579.81 597.77 580.582 714.773 622.063 715.161 622.08 723.145 622.494 730.802 625.249 738.928 625.008 749.529 624.697 761.19 626.741 766.428 626.292 767.023 626.241 767.735 625.999 768.196 626.236 771.74 628.043 775.702 628.909 779.086 631.069 780.086 631.707 780.987 632.5 782 633.117 790.049 638.019 788.402 646.921 787.406 647.856 784.436 650.646 783.082 654.771 779.508 657.091 776.775 658.858 776.766 663.217 779.375 665.04 781.703 666.661 782.349 671.632 788.251 671.076 789.937 670.916 791.213 671.408 792.398 672.529 794.688 674.697 798.046 675.797 799.037 679.258 799.287 680.138 801.171 679.392 800.779 680.616 799.891 683.406 800.852 686.484 799.326 689.122 798.766 690.096 798.374 691.062 798.3 692.226 797.813 699.952 791.747 704.659 784.018 703.241 777.797 702.094 771.645 702.551 765.532 703.81 763.618 704.202 761.6 703.909 759.776 704.767 758.41 704.767 757.048 704.767 755.681 704.767Z" fill="#AB3B55" transform="matrix(1.00016 0 0 1 231 7.11951)"/></g></svg>