<?xml version="1.0" encoding="UTF-8" standalone="no"?><!DOCTYPE svg PUBLIC "-//W3C//DTD SVG 1.1//EN" "http://www.w3.org/Graphics/SVG/1.1/DTD/svg11.dtd"><svg width="100%" height="100%" viewBox="0 0 32 32" version="1.1" xmlns="http://www.w3.org/2000/svg" xmlns:xlink="http://www.w3.org/1999/xlink" xml:space="preserve" xmlns:serif="http://www.serif.com/" style="fill-rule:evenodd;clip-rule:evenodd;stroke-linecap:round;stroke-linejoin:round;stroke-miterlimit:1.5;"><rect id="Artboard1" x="0" y="0" width="31.386" height="31.386" style="fill:none;"/><g><path d="M22.599,24.108c0,0 -5.063,-0.217 -5.144,-5.606c-0.082,-5.388 4.178,-10.712 8.487,-11.204c1.807,-0.207 1.857,1.239 1.073,2.035c-0.483,0.49 -2.021,1.797 -1.768,3.925c0.253,2.128 2.639,2.908 2.62,6.002c-0.014,2.117 -1.345,4.692 -5.268,4.848Z" style="fill:none;stroke:#b66666;stroke-width:1.5px;"/><path d="M8.665,24.108c0,0 -5.063,-0.217 -5.144,-5.606c-0.082,-5.388 4.178,-10.712 8.487,-11.204c1.807,-0.207 1.857,1.239 1.073,2.035c-0.483,0.49 -2.022,1.797 -1.769,3.925c0.253,2.128 2.64,2.908 2.621,6.002c-0.014,2.117 -1.345,4.692 -5.268,4.848Z" style="fill:none;stroke:#b66666;stroke-width:1.5px;"/></g></svg>