<?xml version="1.0" encoding="UTF-8" standalone="no"?>
<!DOCTYPE svg PUBLIC "-//W3C//DTD SVG 1.1//EN" "http://www.w3.org/Graphics/SVG/1.1/DTD/svg11.dtd">
<svg width="100%" height="100%" viewBox="0 0 1601 1601" version="1.1" xmlns="http://www.w3.org/2000/svg" xmlns:xlink="http://www.w3.org/1999/xlink" xml:space="preserve" xmlns:serif="http://www.serif.com/" style="fill-rule:evenodd;clip-rule:evenodd;stroke-linecap:round;stroke-linejoin:round;stroke-miterlimit:1.5;">
    <g transform="matrix(1,0,0,1,-15134,-4338)">
        <g id="logo-square-black-only" transform="matrix(1.86698,0,0,1.66667,15134.9,4338.94)">
            <rect x="0" y="0" width="857" height="960" style="fill:none;"/>
            <g transform="matrix(0.535625,0,0,0.6,2.90645,-112.311)">
                <g id="Logo">
                    <path d="M964.875,492.845C969.681,491.391 995.337,463.737 995.337,463.737C995.337,463.737 958.282,485.734 949.597,487.01C940.911,488.285 924.765,487.514 924.765,487.514C939.746,507.329 961.229,558.06 982.859,571.994C1004.49,585.928 1034.6,577.72 1086.87,542.778C1139.14,507.836 1174.32,439.933 1174.32,439.933C1166.87,426.556 1138.43,358.223 1155.29,338.994C1172.14,319.766 1199.23,334.128 1205.46,361.156C1211.69,388.183 1187.75,434.892 1187.75,434.892L1196.56,449.434C1208.22,471.332 1266.96,536.637 1306,572.786C1345.03,608.935 1384.74,693.968 1341.36,786.899C1297.99,879.83 1138.06,1014.12 1070.32,1067C1002.58,1119.88 980.824,1097.76 946.882,1074.02C912.939,1050.27 777.901,891.468 777.901,891.468C777.901,891.468 736.958,965.704 732.36,993.345C727.762,1020.99 797.795,1234.21 809.848,1278.52C821.901,1322.83 823.972,1365.54 823.972,1365.54C837.446,1382.04 850.004,1404.96 841.981,1468.5C833.959,1532.04 790.129,1578.44 749.949,1604.38C651.338,1668.04 549.809,1636.8 539.694,1634.67C529.579,1632.55 529.975,1631.44 512.895,1635.66C406.824,1661.85 322.372,1595.16 290.386,1509.98C258.399,1424.81 274.428,1297.39 328.036,1218.58C381.643,1139.77 388.505,1081.35 386.33,1066.66C378.613,1014.55 313.616,1004.46 300.735,1005.23C267.234,1007.24 245.874,1031.39 242.326,1074.46C238.777,1117.53 246.791,1131.86 254.8,1140.69C268.594,1155.9 289.265,1150.49 289.265,1150.49C267.306,1166.9 245.455,1146.43 235.908,1131.05C226.36,1115.67 229.345,1072.59 229.345,1072.59C230.429,1053.7 236.888,1008.22 286.322,992.194C351.258,971.139 403.991,1032.47 400.854,1073.25C389.713,1218.08 312.472,1201.82 288.513,1365.89C261.663,1549.75 367.365,1605.74 417.854,1622.24C468.342,1638.74 500.875,1624.12 500.875,1624.12C346.95,1579.92 358.01,1420.85 362.791,1390.24C367.572,1359.62 382.94,1351.21 382.94,1351.21C382.758,1324.41 385.786,1302.64 415.962,1228.58C474.666,1084.51 531.503,1033.67 563.576,1041.94C607.574,1053.29 612.092,1074.25 634.09,1289.79C656.088,1505.33 605.886,1558.38 587.98,1581.9C570.073,1605.43 540.701,1624.14 540.701,1624.14C592.254,1649.89 697.913,1617.21 705.573,1614.15C777.781,1585.37 812.602,1524.71 818.267,1509.94C840.765,1451.25 830.119,1406.8 826.832,1396.53C823.545,1386.27 820.325,1384.46 820.325,1384.46C822.209,1389.99 821.411,1395.6 819.991,1416.51C818.572,1437.41 799.004,1461.53 789.127,1423.41C779.249,1385.3 795.856,1368.5 798.135,1365.62C800.413,1362.74 807.036,1363.32 807.036,1363.32L811.652,1362.93C812.227,1357.23 810.592,1327.25 807.001,1309.96C794.162,1248.15 749.088,1104.3 735.84,1052.57C722.593,1000.84 723.728,990.105 734.038,958.131C744.349,926.156 786.47,866.18 784.446,833.496C781.411,784.495 761.07,778.622 774.662,754.22C803.675,702.136 810.205,646.724 810.555,630.762C811.351,594.538 798.971,605.658 776.6,620.357C743.852,641.873 721.947,694.307 719.973,698.634C716.322,706.635 702.258,738.581 686.755,732.759C671.252,726.937 675.612,703.448 675.612,703.448C675.612,703.448 668.581,727.159 653.058,743.437C637.536,759.715 625.872,745.792 622.769,738.328C619.666,730.864 622.275,713.109 622.275,713.109C622.275,713.109 610.677,731.297 598.875,738.687C587.073,746.078 581.351,740.957 578.058,739.298C565.552,732.997 575.464,700.361 575.464,700.361C575.464,700.361 571.213,704.316 560.218,715.14C541.847,733.225 527.918,723.217 522.969,710.918C518.021,698.619 546.124,663.341 548.767,657.554C551.41,651.767 521.26,642.342 516.71,639.996C487.302,624.839 453.943,596.422 444.63,605.051C428.615,619.89 447.378,658.654 458.51,686.528C475.19,728.296 476.041,729.837 469.801,763.347C463.561,796.857 467.969,822.45 469.298,830.734C474.349,862.218 517.681,915.308 523.5,942.798C529.319,970.288 526.588,975.091 523.545,978.824C509.743,995.759 515.779,979.137 516.682,968.681C517.584,958.225 513.939,935.24 494.561,907.854C447.035,840.686 455.536,775.95 457.22,760.86C458.904,745.769 465.266,736.029 446.496,689.31C427.725,642.59 427.452,608.139 437.611,592.803C447.771,577.467 522.72,630.718 532.366,634.448C542.013,638.177 555.362,647.085 558.642,649.261C561.923,651.438 571.323,637.422 575.995,637.761C580.668,638.1 575.025,644.814 552.93,673.222C530.835,701.631 530.465,711.571 540.22,713.016C549.975,714.461 573.425,687.424 580.026,680.809C586.628,674.195 591.759,662.881 595.21,653.112C598.66,643.343 606.065,632.537 614.906,629.793C623.746,627.048 617.685,652.211 614.648,659.484C611.61,666.757 596.085,681.104 589.33,693.082C574.988,718.508 579.793,729.82 587.501,731.994C595.208,734.168 623.423,695.364 625.874,691.396C628.325,687.428 628.158,669.174 638.873,652.38C649.589,635.585 653.538,648.889 652.424,658.748C651.31,668.607 642.152,687.879 636.643,693.642C631.134,699.405 629.959,726.398 629.086,729.04C628.213,731.682 629.98,744.839 640.914,739.751C651.848,734.663 671.543,691.512 673.986,684.7C676.429,677.888 675.925,660.096 676.622,649.626C677.32,639.155 684.653,636.206 689.97,644.805C695.288,653.404 689.908,657.215 684.394,685.676C678.88,714.136 682.237,719.131 690.984,722.564C699.732,725.996 708.508,701.649 719.925,677.239C731.342,652.829 739.449,636.873 769.171,613.232C798.893,589.592 817.693,581.425 817.825,626.242C817.956,671.059 814.075,699.753 779.926,756.547C768.573,775.428 790.541,798.678 793.76,840.625C794.889,855.34 783.177,878.671 783.177,878.671C783.177,878.671 901.568,1003.24 932.373,1035.89C963.178,1068.56 987.274,1083.65 1010.99,1078.24C1069.62,1064.86 1221.84,923.198 1296.34,830.096C1370.84,736.994 1341.83,659.419 1336.71,636.855C1331.59,614.291 1317.84,605.977 1277.08,564.42C1180.43,465.886 1179.94,449.499 1179.56,450.246C1159.45,490.48 1122.39,525.542 1085.07,556.507C1047.74,587.473 1022.3,588.513 998.357,585.854C974.41,583.194 955.325,551.02 949.491,537.448C943.657,523.876 926.65,495.695 919.444,486.653C912.237,477.611 942.994,480.109 946.67,479.883C950.345,479.657 952.452,475.002 954.61,471.588C956.767,468.174 958.657,464.721 964.003,464.51C969.348,464.299 988.354,458.823 993.966,456.685C999.577,454.548 1003.13,454.089 1008.83,454.332C1014.53,454.576 991.588,478.273 981.473,485.668C971.358,493.062 964.875,492.845 964.875,492.845ZM813.872,1380.64C813.872,1380.64 802.182,1372.27 800,1385.44C797.818,1398.6 798.206,1441.67 805.549,1428.97C810.974,1419.58 813.216,1410.53 813.872,1380.64ZM394.83,1364.76C382.553,1415.97 401.759,1433.59 405.273,1413.88C413.273,1368.99 394.83,1364.76 394.83,1364.76ZM1182.89,425.486C1182.89,425.486 1215.76,360.727 1185.7,341.822C1155.64,322.917 1161.41,375.874 1167.75,388.68C1173.1,399.473 1182.89,425.486 1182.89,425.486ZM382.288,1371.01C382.288,1371.01 368.043,1384.69 371.01,1427.57C373.976,1470.44 376.151,1584.67 524.337,1618.16C524.337,1618.16 587.476,1592.94 614.04,1507.73C624.793,1473.24 635.757,1391.82 627.804,1311.71C619.851,1231.59 612.54,1055.57 564.285,1052.39C526.002,1049.88 486.748,1107.16 460.667,1159.21C434.587,1211.26 393.702,1296.92 394.186,1345.41C394.186,1345.41 409.423,1356.75 412.894,1366.81C416.365,1376.87 423.916,1422.5 404.871,1429.52C385.825,1436.55 381.856,1411.07 381.403,1398.07C381.088,1389.02 380.694,1385.45 382.288,1371.01Z" style="stroke:black;stroke-width:7.33px;"/>
                </g>
            </g>
        </g>
    </g>
</svg>
