<?xml version="1.0" encoding="UTF-8" standalone="no"?>
<!DOCTYPE svg PUBLIC "-//W3C//DTD SVG 1.1//EN" "http://www.w3.org/Graphics/SVG/1.1/DTD/svg11.dtd">
<svg width="100%" height="100%" viewBox="0 0 1433 1995" version="1.1" xmlns="http://www.w3.org/2000/svg" xmlns:xlink="http://www.w3.org/1999/xlink" xml:space="preserve" xmlns:serif="http://www.serif.com/" style="fill-rule:evenodd;clip-rule:evenodd;stroke-linecap:round;stroke-linejoin:round;stroke-miterlimit:1.5;">
    <g transform="matrix(1,0,0,1,-16854,-4338)">
        <g id="logo-tall-black-only" transform="matrix(1.67052,0,0,2.07657,16854.6,4338.94)">
            <rect x="0" y="0" width="857" height="960" style="fill:none;"/>
            <g transform="matrix(4.18851,0,0,1.65555,-1093.02,517.118)">
                <g transform="matrix(0.769714,0,0,0.769714,-103.205,-314.318)">
                    <g transform="matrix(0.142918,0,0,0.290877,-8.48582,-344.654)">
                        <path d="M3792.12,3264.62C3793.7,3265.33 3794.97,3266.38 3795.94,3267.79C3796.91,3269.2 3797.39,3270.78 3797.39,3272.54C3797.39,3273.6 3797.31,3274.48 3797.13,3275.18C3791.68,3287.5 3785.12,3303.56 3777.46,3323.36C3769.81,3343.16 3764.66,3358.17 3762.02,3368.38L3762.02,3369.17C3763.78,3387.3 3766.02,3406.96 3768.75,3428.17C3771.48,3449.38 3773.72,3464.47 3775.48,3473.45C3774.6,3475.74 3773.55,3477.49 3772.32,3478.73C3770.91,3479.78 3769.5,3480.44 3768.09,3480.71C3766.68,3480.97 3764.66,3481.1 3762.02,3481.1L3762.02,3469.75C3761.67,3459.72 3760.04,3443.31 3757.14,3420.51C3754.23,3397.72 3750.67,3374.01 3746.44,3349.37C3742.22,3324.73 3737.99,3304.31 3733.77,3288.12C3733.42,3287.41 3733.07,3286.53 3732.72,3285.48C3732.36,3284.42 3732.01,3283.28 3731.66,3282.05C3729.72,3275.89 3728.76,3271.14 3728.76,3267.79L3734.03,3263.3C3736.85,3263.3 3739.27,3264.84 3741.3,3267.92C3743.32,3271 3744.33,3274.3 3744.33,3277.82C3744.33,3279.06 3744.24,3279.85 3744.07,3280.2C3746.71,3287.59 3749.39,3297.32 3752.12,3309.37C3754.85,3321.43 3757.18,3333.7 3759.12,3346.2C3765.98,3320.68 3770.56,3304.58 3772.84,3297.89C3774.08,3294.89 3775.13,3292.12 3776.01,3289.57C3776.89,3287.02 3777.42,3285.3 3777.6,3284.42C3777.95,3283.54 3778.3,3282.14 3778.65,3280.2C3779,3278.26 3779.53,3276.5 3780.24,3274.92C3781.12,3273.16 3782.22,3271.4 3783.53,3269.64C3784.86,3267.88 3785.78,3266.65 3786.31,3265.94C3788.42,3264.53 3790.36,3264.1 3792.12,3264.62Z"/>
                    </g>
                    <g transform="matrix(0.142918,0,0,0.290877,-8.48582,-344.654)">
                        <path d="M3853.36,3441.5C3851.25,3441.5 3849.36,3440.8 3847.69,3439.39C3846.01,3437.98 3845.18,3436.22 3845.18,3434.11C3845.18,3423.38 3844.91,3411.32 3844.39,3397.94C3844.03,3389.49 3843.86,3381.22 3843.86,3373.13L3843.86,3362.3L3843.6,3358.87C3843.42,3357.99 3843.33,3356.93 3843.33,3355.7C3843.33,3354.65 3843.42,3354.03 3843.6,3353.86L3843.6,3352.8C3842.89,3338.89 3842.54,3317.95 3842.54,3289.97L3842.54,3283.1C3842.54,3281.17 3840.78,3280.2 3837.26,3280.2C3829.87,3280.2 3824.59,3279.06 3821.42,3276.77C3819.48,3275.71 3818.51,3274.22 3818.51,3272.28C3818.51,3270.7 3819.44,3269.38 3821.29,3268.32C3823.14,3267.26 3825.03,3266.74 3826.96,3266.74C3828.55,3266.74 3832.86,3267.09 3839.9,3267.79C3840.78,3267.79 3841.39,3267.88 3841.75,3268.06C3847.2,3268.23 3850.9,3270.47 3852.84,3274.79C3854.77,3279.1 3855.74,3282.66 3855.74,3285.48C3855.74,3300.97 3856.53,3328.95 3858.12,3369.43C3859.17,3391.96 3859.7,3414.22 3859.7,3436.22C3859.7,3437.81 3859.08,3439.08 3857.85,3440.05C3856.62,3441.02 3855.12,3441.5 3853.36,3441.5Z"/>
                    </g>
                    <g transform="matrix(0.142918,0,0,0.290877,-8.48582,-344.654)">
                        <path d="M3934.41,3274.66C3934.41,3271.84 3934.94,3269.73 3935.99,3268.32C3937.05,3266.91 3938.46,3266.21 3940.22,3266.21C3942.33,3266.21 3944.22,3267.18 3945.89,3269.11C3947.57,3271.05 3948.4,3273.51 3948.4,3276.5L3948.14,3288.38C3947.96,3292.96 3947.88,3298.59 3947.88,3305.28L3945.24,3346.46C3944.88,3351.39 3944.62,3355.18 3944.44,3357.82C3944.27,3360.45 3944.09,3362.48 3943.91,3363.89L3943.12,3372.6L3942.6,3378.93C3942.6,3393.37 3941.19,3404.68 3938.37,3412.86C3935.56,3421.04 3930.19,3428.57 3922.27,3435.43L3912.76,3439.66C3904.84,3443 3900.53,3444.76 3899.83,3444.93C3898.95,3445.11 3897.72,3445.2 3896.13,3445.2C3891.56,3445.2 3888.83,3443.26 3887.95,3439.39L3887.95,3438.34C3887.95,3436.58 3888.56,3434.82 3889.8,3433.06L3900.36,3429.89L3906.95,3426.45C3905.72,3421.18 3904.67,3414.14 3903.79,3405.34C3902.91,3396.53 3902.38,3388.53 3902.2,3381.31C3902.2,3377.62 3901.85,3374.18 3901.15,3371.01C3900.44,3367.85 3899.3,3363.97 3897.72,3359.4C3895.43,3352.53 3893.58,3345.85 3892.17,3339.34C3890.76,3332.82 3889.88,3324.46 3889.53,3314.26L3888.47,3293.66L3887.95,3276.5C3887.95,3270.17 3890.94,3267 3896.92,3267C3898.51,3267 3899.83,3267.7 3900.88,3269.11C3901.94,3270.52 3902.47,3272.01 3902.47,3273.6L3902.99,3294.19C3902.99,3293.66 3903.17,3299.56 3903.52,3311.88C3903.7,3320.33 3904.36,3327.76 3905.5,3334.19C3906.65,3340.61 3908.19,3348.22 3910.12,3357.02C3911.18,3361.25 3912.1,3365.38 3912.89,3369.43C3913.69,3373.48 3914.08,3377 3914.08,3379.99L3914.88,3422.76C3916.99,3421.88 3918.13,3421.44 3918.31,3421.44C3919.72,3420.74 3921.08,3419.77 3922.4,3418.53C3923.72,3417.3 3924.56,3416.16 3924.91,3415.1C3925.08,3414.58 3925.61,3413.3 3926.49,3411.28C3927.37,3409.25 3927.99,3406.48 3928.34,3402.96C3928.69,3395.22 3929.04,3386.33 3929.39,3376.3L3932.56,3314.52C3933.09,3296.39 3933.62,3285.04 3934.15,3280.46L3934.41,3274.66Z"/>
                    </g>
                    <g transform="matrix(0.142918,0,0,0.290877,-8.48582,-344.654)">
                        <path d="M4002.79,3385.01C3997.33,3385.01 3994.6,3379.55 3994.6,3368.64C3994.6,3366.88 3994.87,3364.94 3995.39,3362.83C3996.1,3358.61 3996.45,3354.91 3996.45,3351.74L3996.45,3334.85C3996.45,3332.91 3996.28,3327.72 3995.92,3319.27L3995.13,3305.28L3995.13,3302.38C3995.13,3300.09 3995.04,3298.59 3994.87,3297.89C3994.69,3290.32 3994.38,3285.39 3993.94,3283.1C3993.5,3280.82 3991.88,3279.67 3989.06,3279.67L3982.46,3279.93C3981.4,3280.11 3979.91,3280.2 3977.97,3280.2C3972.34,3280.2 3969.35,3278 3968.99,3273.6C3968.99,3269.9 3971.2,3267.18 3975.6,3265.41C3978.76,3265.59 3982.2,3266.12 3985.89,3267L3992.76,3268.32C3994.34,3266.74 3996.89,3265.94 4000.41,3265.94C4002.52,3265.94 4004.33,3266.87 4005.82,3268.72C4007.32,3270.56 4008.07,3272.54 4008.07,3274.66C4008.42,3284.51 4008.6,3293.75 4008.6,3302.38L4009.12,3319.27C4009.12,3323.67 4009.04,3327.45 4008.86,3330.62C4008.68,3334.85 4008.6,3339.51 4008.6,3344.62C4008.6,3347.96 4009.12,3354.21 4010.18,3363.36L4010.71,3368.64C4011.41,3370.22 4011.76,3371.89 4011.76,3373.66C4011.76,3376.65 4010.88,3379.29 4009.12,3381.58C4007.36,3383.86 4005.25,3385.01 4002.79,3385.01Z"/>
                    </g>
                    <g transform="matrix(0.142918,0,0,0.290877,-8.48582,-344.654)">
                        <path d="M4068.79,3385.01C4063.33,3385.01 4060.6,3379.55 4060.6,3368.64C4060.6,3366.88 4060.87,3364.94 4061.39,3362.83C4062.1,3358.61 4062.45,3354.91 4062.45,3351.74L4062.45,3334.85C4062.45,3332.91 4062.28,3327.72 4061.92,3319.27L4061.13,3305.28L4061.13,3302.38C4061.13,3300.09 4061.04,3298.59 4060.87,3297.89C4060.69,3290.32 4060.38,3285.39 4059.94,3283.1C4059.5,3280.82 4057.88,3279.67 4055.06,3279.67L4048.46,3279.93C4047.4,3280.11 4045.91,3280.2 4043.97,3280.2C4038.34,3280.2 4035.35,3278 4034.99,3273.6C4034.99,3269.9 4037.2,3267.18 4041.6,3265.41C4044.76,3265.59 4048.2,3266.12 4051.89,3267L4058.76,3268.32C4060.34,3266.74 4062.89,3265.94 4066.41,3265.94C4068.52,3265.94 4070.33,3266.87 4071.82,3268.72C4073.32,3270.56 4074.07,3272.54 4074.07,3274.66C4074.42,3284.51 4074.6,3293.75 4074.6,3302.38L4075.12,3319.27C4075.12,3323.67 4075.04,3327.45 4074.86,3330.62C4074.68,3334.85 4074.6,3339.51 4074.6,3344.62C4074.6,3347.96 4075.12,3354.21 4076.18,3363.36L4076.71,3368.64C4077.41,3370.22 4077.76,3371.89 4077.76,3373.66C4077.76,3376.65 4076.88,3379.29 4075.12,3381.58C4073.36,3383.86 4071.25,3385.01 4068.79,3385.01Z"/>
                    </g>
                    <g transform="matrix(0.142918,0,0,0.290877,-8.48582,-344.654)">
                        <path d="M4139.54,3441.5C4137.43,3441.5 4135.53,3440.8 4133.86,3439.39C4132.19,3437.98 4131.36,3436.22 4131.36,3434.11C4131.36,3423.38 4131.09,3411.32 4130.56,3397.94C4130.21,3389.49 4130.03,3381.22 4130.03,3373.13L4130.03,3362.3L4129.77,3358.87C4129.6,3357.99 4129.51,3356.93 4129.51,3355.7C4129.51,3354.65 4129.6,3354.03 4129.77,3353.86L4129.77,3352.8C4129.07,3338.89 4128.72,3317.95 4128.72,3289.97L4128.72,3283.1C4128.72,3281.17 4126.95,3280.2 4123.44,3280.2C4116.04,3280.2 4110.76,3279.06 4107.6,3276.77C4105.66,3275.71 4104.69,3274.22 4104.69,3272.28C4104.69,3270.7 4105.61,3269.38 4107.46,3268.32C4109.31,3267.26 4111.2,3266.74 4113.14,3266.74C4114.72,3266.74 4119.03,3267.09 4126.07,3267.79C4126.95,3267.79 4127.57,3267.88 4127.92,3268.06C4133.38,3268.23 4137.07,3270.47 4139.01,3274.79C4140.95,3279.1 4141.91,3282.66 4141.91,3285.48C4141.91,3300.97 4142.71,3328.95 4144.29,3369.43C4145.35,3391.96 4145.88,3414.22 4145.88,3436.22C4145.88,3437.81 4145.26,3439.08 4144.03,3440.05C4142.8,3441.02 4141.3,3441.5 4139.54,3441.5Z"/>
                    </g>
                    <g transform="matrix(0.142918,0,0,0.290877,-8.48582,-344.654)">
                        <path d="M4256.76,3442.56C4253.94,3443.26 4250.95,3443.62 4247.78,3443.62C4241.97,3443.62 4237.44,3441.94 4234.18,3438.6C4230.93,3435.26 4229.3,3430.33 4229.3,3423.82C4229.3,3417.3 4231.02,3407.27 4234.45,3393.72C4237.88,3380.17 4241.09,3369.08 4244.08,3360.45C4246.02,3354.12 4249.27,3345.06 4253.85,3333.26L4257.28,3324.02C4258.52,3320.33 4259.48,3315.36 4260.19,3309.11C4260.89,3302.86 4261.24,3296.39 4261.24,3289.7C4261.24,3284.78 4261.15,3281.26 4260.98,3279.14C4257.81,3278.62 4255.3,3278.26 4253.45,3278.09C4251.61,3277.91 4247.95,3277.74 4242.5,3277.56C4232.29,3277.21 4225.69,3276.15 4222.7,3274.39C4220.76,3273.16 4219.8,3271.66 4219.8,3269.9L4219.8,3261.19C4219.8,3257.85 4219.62,3254.68 4219.27,3251.69C4218.91,3248.7 4218.65,3246.67 4218.48,3245.62C4217.77,3235.41 4219.97,3230.3 4225.07,3230.3C4227.54,3230.3 4229.56,3231.36 4231.15,3233.47C4232.73,3235.58 4233.7,3238.05 4234.05,3240.86C4234.05,3241.92 4233.79,3243.41 4233.26,3245.35L4232.99,3250.37L4232.73,3264.36C4234.49,3264.36 4238.89,3264.71 4245.93,3265.41L4251.74,3265.94L4263.88,3266.47L4268.11,3266.47C4272.86,3266.47 4275.41,3268.76 4275.76,3273.34C4276.64,3278.97 4277.08,3287.15 4277.08,3297.89C4277.08,3303.7 4276.91,3307.57 4276.56,3309.5C4274.97,3318.66 4271.54,3330.1 4266.26,3343.82L4262.3,3354.65C4250.33,3387.74 4243.73,3409.56 4242.5,3420.12C4242.15,3422.58 4241.97,3424.17 4241.97,3424.87C4241.97,3426.81 4242.59,3428.22 4243.82,3429.1C4245.05,3429.97 4247.43,3430.41 4250.95,3430.41C4253.23,3430.41 4255.08,3430.33 4256.49,3430.15C4258.25,3429.97 4259.53,3430.64 4260.32,3432.13C4261.11,3433.63 4261.42,3435.52 4261.24,3437.81C4260.89,3440.45 4259.4,3442.03 4256.76,3442.56Z"/>
                    </g>
                    <g transform="matrix(0.142918,0,0,0.290877,-8.48582,-344.654)">
                        <path d="M4337.8,3441.5C4335.69,3441.5 4333.8,3440.8 4332.13,3439.39C4330.45,3437.98 4329.62,3436.22 4329.62,3434.11C4329.62,3423.38 4329.36,3411.32 4328.83,3397.94C4328.48,3389.49 4328.3,3381.22 4328.3,3373.13L4328.3,3362.3L4328.03,3358.87C4327.86,3357.99 4327.77,3356.93 4327.77,3355.7C4327.77,3354.65 4327.86,3354.03 4328.03,3353.86L4328.03,3352.8C4327.33,3338.89 4326.98,3317.95 4326.98,3289.97L4326.98,3283.1C4326.98,3281.17 4325.22,3280.2 4321.7,3280.2C4314.31,3280.2 4309.03,3279.06 4305.86,3276.77C4303.92,3275.71 4302.95,3274.22 4302.95,3272.28C4302.95,3270.7 4303.88,3269.38 4305.73,3268.32C4307.57,3267.26 4309.47,3266.74 4311.4,3266.74C4312.99,3266.74 4317.3,3267.09 4324.34,3267.79C4325.22,3267.79 4325.84,3267.88 4326.19,3268.06C4331.64,3268.23 4335.34,3270.47 4337.27,3274.79C4339.21,3279.1 4340.18,3282.66 4340.18,3285.48C4340.18,3300.97 4340.97,3328.95 4342.56,3369.43C4343.61,3391.96 4344.14,3414.22 4344.14,3436.22C4344.14,3437.81 4343.52,3439.08 4342.29,3440.05C4341.06,3441.02 4339.56,3441.5 4337.8,3441.5Z"/>
                    </g>
                    <g transform="matrix(0.142918,0,0,0.290877,-8.48582,-344.654)">
                        <path d="M4399.05,3441.5C4393.77,3441.5 4388.98,3440.93 4384.66,3439.79C4380.35,3438.64 4375.99,3436.66 4371.6,3433.85C4370.54,3432.79 4369.92,3432 4369.75,3431.47L4369.75,3430.41C4369.75,3429.01 4370.19,3427.73 4371.07,3426.59C4371.95,3425.44 4373,3424.78 4374.23,3424.61C4375.11,3424.78 4376.08,3425.18 4377.14,3425.8C4378.19,3426.41 4379.25,3426.89 4380.31,3427.25C4384.71,3429.36 4390.43,3430.41 4397.47,3430.41C4404.86,3430.41 4410.32,3426.01 4413.84,3417.22C4417.36,3408.41 4419.11,3394.69 4419.11,3376.03L4419.11,3356.49L4418.32,3324.29C4418.32,3307.74 4416.91,3295.86 4414.1,3288.65C4411.28,3281.43 4406.53,3277.38 4399.84,3276.5L4391.13,3275.18C4389.55,3275.53 4388.4,3276.94 4387.7,3279.41C4386.99,3281.87 4386.38,3286.36 4385.85,3292.87C4385.68,3294.98 4385.59,3298.06 4385.59,3302.11C4385.59,3309.86 4386.38,3319.45 4387.96,3330.89C4388.14,3334.23 4388.67,3336.91 4389.55,3338.94C4390.43,3340.96 4391.57,3342.86 4392.98,3344.62C4394.74,3346.38 4395.62,3348.14 4395.62,3349.89C4395.62,3351.83 4394.69,3354.08 4392.85,3356.63C4391,3359.18 4388.4,3360.01 4385.06,3359.14C4381.89,3358.43 4379.6,3356.54 4378.19,3353.46C4376.79,3350.38 4375.86,3346.55 4375.42,3341.97C4374.98,3337.4 4374.5,3329.13 4373.97,3317.16L4373.71,3311.62C4373.71,3307.57 4374.06,3301.32 4374.76,3292.87C4375.99,3272.98 4379.52,3263.04 4385.32,3263.04C4386.91,3263.04 4388.4,3263.66 4389.81,3264.89L4403.01,3265.94C4413.4,3267 4421.01,3272.68 4425.85,3282.97C4430.69,3293.27 4433.11,3308.89 4433.11,3329.83L4433.11,3372.07C4433.11,3378.58 4432.76,3385.71 4432.05,3393.45C4431.35,3401.2 4430.38,3407.18 4429.15,3411.41C4426.33,3422.14 4422.55,3429.84 4417.8,3434.51C4413.04,3439.17 4406.8,3441.5 4399.05,3441.5Z"/>
                    </g>
                    <g transform="matrix(0.142918,0,0,0.290877,-8.48582,-344.654)">
                        <path d="M4494.36,3385.01C4488.9,3385.01 4486.17,3379.55 4486.17,3368.64C4486.17,3366.88 4486.44,3364.94 4486.96,3362.83C4487.67,3358.61 4488.02,3354.91 4488.02,3351.74L4488.02,3334.85C4488.02,3332.91 4487.84,3327.72 4487.49,3319.27L4486.7,3305.28L4486.7,3302.38C4486.7,3300.09 4486.61,3298.59 4486.44,3297.89C4486.26,3290.32 4485.95,3285.39 4485.51,3283.1C4485.07,3280.82 4483.44,3279.67 4480.63,3279.67L4474.03,3279.93C4472.97,3280.11 4471.48,3280.2 4469.54,3280.2C4463.91,3280.2 4460.91,3278 4460.56,3273.6C4460.56,3269.9 4462.76,3267.18 4467.16,3265.41C4470.33,3265.59 4473.76,3266.12 4477.46,3267L4484.32,3268.32C4485.91,3266.74 4488.46,3265.94 4491.98,3265.94C4494.09,3265.94 4495.9,3266.87 4497.39,3268.72C4498.89,3270.56 4499.64,3272.54 4499.64,3274.66C4499.99,3284.51 4500.16,3293.75 4500.16,3302.38L4500.69,3319.27C4500.69,3323.67 4500.6,3327.45 4500.43,3330.62C4500.25,3334.85 4500.16,3339.51 4500.16,3344.62C4500.16,3347.96 4500.69,3354.21 4501.75,3363.36L4502.28,3368.64C4502.98,3370.22 4503.33,3371.89 4503.33,3373.66C4503.33,3376.65 4502.45,3379.29 4500.69,3381.58C4498.93,3383.86 4496.82,3385.01 4494.36,3385.01Z"/>
                    </g>
                    <g transform="matrix(0.142918,0,0,0.290877,-8.48582,-344.654)">
                        <path d="M4563.26,3442.82C4559.03,3442.82 4555.25,3441.9 4551.91,3440.05C4548.56,3438.2 4545.92,3435.52 4543.99,3432C4539.59,3424.78 4536.77,3416.51 4535.54,3407.18C4534.31,3397.33 4533.69,3387.56 4533.69,3377.88C4533.34,3352.53 4533.16,3329.74 4533.16,3309.5C4533.16,3302.46 4532.9,3293.93 4532.37,3283.89L4531.84,3271.75C4533.78,3268.06 4535.72,3266.21 4537.65,3266.21C4539.59,3266.21 4541.39,3267.84 4543.06,3271.09C4544.73,3274.35 4545.57,3277.82 4545.57,3281.52L4545.57,3353.33C4545.57,3359.49 4546.19,3368.38 4547.42,3379.99C4548.65,3391.26 4549.27,3400.58 4549.27,3407.97C4549.27,3414.14 4550.5,3418.89 4552.96,3422.23C4555.43,3425.58 4558.86,3427.25 4563.26,3427.25C4567.31,3427.25 4570.21,3422.85 4571.97,3414.05C4573.73,3405.25 4574.83,3392.44 4575.27,3375.64C4575.71,3358.83 4575.93,3331.68 4575.93,3294.19L4575.93,3282.58C4575.93,3280.64 4575.05,3279.67 4573.29,3279.67C4571.88,3279.67 4570.69,3279.89 4569.73,3280.33C4568.76,3280.77 4567.97,3281.17 4567.35,3281.52C4566.73,3281.87 4566.25,3282.14 4565.9,3282.31C4564.84,3282.66 4564.05,3282.84 4563.52,3282.84C4562.11,3282.84 4560.75,3282.36 4559.43,3281.39C4558.11,3280.42 4557.19,3279.23 4556.66,3277.82C4556.48,3277.3 4556.4,3276.5 4556.4,3275.45C4556.4,3270.17 4563.17,3267.18 4576.72,3266.47C4579.36,3266.47 4581.78,3267.44 4583.98,3269.38C4586.18,3271.31 4587.9,3273.6 4589.13,3276.24C4590.36,3278.88 4590.98,3281.08 4590.98,3282.84C4590.98,3285.13 4590.72,3289.18 4590.19,3294.98C4589.66,3300.97 4589.4,3305.37 4589.4,3308.18L4588.87,3319.27C4588.34,3324.02 4588.07,3327.72 4588.07,3330.36L4588.34,3332.47L4588.34,3334.85C4588.34,3363.18 4587.81,3384.7 4586.76,3399.39C4585.7,3414.09 4583.37,3425 4579.76,3432.13C4576.15,3439.26 4570.65,3442.82 4563.26,3442.82Z"/>
                    </g>
                    <g transform="matrix(0.142918,0,0,0.290877,-8.48582,-344.654)">
                        <path d="M3437.56,3686.23L3437.3,3702.86L3437.3,3703.13C3436.42,3706.12 3435.58,3708.14 3434.79,3709.2C3434,3710.26 3432.64,3710.78 3430.7,3710.78C3427.36,3710.78 3421.81,3710.61 3414.07,3710.26L3399.28,3709.99C3392.24,3709.99 3388.81,3708.06 3388.99,3704.18C3388.81,3698.02 3388.5,3686.49 3388.06,3669.6C3387.62,3652.7 3387.32,3643.38 3387.14,3641.62C3385.2,3606.24 3384.24,3578.17 3384.24,3557.4C3384.24,3547.19 3384.32,3539.36 3384.5,3533.9C3384.5,3532.32 3385.16,3531 3386.48,3529.94C3387.8,3528.89 3389.34,3528.36 3391.1,3528.36L3410.11,3528.89C3418.38,3529.24 3424.8,3529.41 3429.38,3529.41C3431.32,3529.41 3433.03,3529.99 3434.53,3531.13C3436.02,3532.28 3436.77,3533.73 3436.77,3535.49C3436.6,3543.41 3436.51,3554.93 3436.51,3570.07L3436.77,3618.65C3436.95,3622.34 3437.03,3628.15 3437.03,3636.07L3437.56,3686.23ZM3424.36,3680.16C3424.36,3661.68 3424.19,3638.62 3423.84,3610.99C3423.48,3583.36 3423.04,3559.95 3422.51,3540.77L3413.8,3540.77C3407.99,3540.77 3402.8,3540.94 3398.23,3541.3C3397.88,3553.97 3398.58,3581.16 3400.34,3622.87C3401.39,3649.1 3401.92,3670.48 3401.92,3687.02L3401.92,3698.38L3424.36,3698.38L3424.36,3680.16Z"/>
                    </g>
                    <g transform="matrix(0.142918,0,0,0.290877,-8.48582,-344.654)">
                        <path d="M3501.45,3649.01C3495.99,3649.01 3493.27,3643.55 3493.27,3632.64C3493.27,3630.88 3493.53,3628.94 3494.06,3626.83C3494.76,3622.61 3495.12,3618.91 3495.12,3615.74L3495.12,3598.85C3495.12,3596.91 3494.94,3591.72 3494.59,3583.27L3493.8,3569.28L3493.8,3566.38C3493.8,3564.09 3493.71,3562.59 3493.53,3561.89C3493.36,3554.32 3493.05,3549.39 3492.61,3547.1C3492.17,3544.82 3490.54,3543.67 3487.72,3543.67L3481.12,3543.93C3480.07,3544.11 3478.57,3544.2 3476.64,3544.2C3471,3544.2 3468.01,3542 3467.66,3537.6C3467.66,3533.9 3469.86,3531.18 3474.26,3529.41C3477.43,3529.59 3480.86,3530.12 3484.56,3531L3491.42,3532.32C3493,3530.74 3495.56,3529.94 3499.08,3529.94C3501.19,3529.94 3502.99,3530.87 3504.49,3532.72C3505.98,3534.56 3506.73,3536.54 3506.73,3538.66C3507.08,3548.51 3507.26,3557.75 3507.26,3566.38L3507.79,3583.27C3507.79,3587.67 3507.7,3591.45 3507.52,3594.62C3507.35,3598.85 3507.26,3603.51 3507.26,3608.62C3507.26,3611.96 3507.79,3618.21 3508.84,3627.36L3509.37,3632.64C3510.08,3634.22 3510.43,3635.89 3510.43,3637.66C3510.43,3640.65 3509.55,3643.29 3507.79,3645.58C3506.03,3647.86 3503.91,3649.01 3501.45,3649.01Z"/>
                    </g>
                    <g transform="matrix(0.142918,0,0,0.290877,-8.48582,-344.654)">
                        <path d="M3573.26,3706.56C3570.44,3707.26 3567.45,3707.62 3564.28,3707.62C3558.47,3707.62 3553.94,3705.94 3550.69,3702.6C3547.43,3699.26 3545.8,3694.33 3545.8,3687.82C3545.8,3681.3 3547.52,3671.27 3550.95,3657.72C3554.38,3644.17 3557.6,3633.08 3560.59,3624.45C3562.52,3618.12 3565.78,3609.06 3570.36,3597.26L3573.79,3588.02C3575.02,3584.33 3575.99,3579.36 3576.69,3573.11C3577.39,3566.86 3577.75,3560.39 3577.75,3553.7C3577.75,3548.78 3577.66,3545.26 3577.48,3543.14C3574.32,3542.62 3571.81,3542.26 3569.96,3542.09C3568.11,3541.91 3564.46,3541.74 3559,3541.56C3548.8,3541.21 3542.2,3540.15 3539.2,3538.39C3537.27,3537.16 3536.3,3535.66 3536.3,3533.9L3536.3,3525.19C3536.3,3521.85 3536.12,3518.68 3535.77,3515.69C3535.42,3512.7 3535.16,3510.67 3534.98,3509.62C3534.28,3499.41 3536.47,3494.3 3541.58,3494.3C3544.04,3494.3 3546.07,3495.36 3547.65,3497.47C3549.24,3499.58 3550.2,3502.05 3550.56,3504.86C3550.56,3505.92 3550.29,3507.41 3549.76,3509.35L3549.5,3514.37L3549.24,3528.36C3550.99,3528.36 3555.39,3528.71 3562.43,3529.41L3568.24,3529.94L3580.39,3530.47L3584.61,3530.47C3589.36,3530.47 3591.91,3532.76 3592.27,3537.34C3593.15,3542.97 3593.59,3551.15 3593.59,3561.89C3593.59,3567.7 3593.41,3571.57 3593.06,3573.5C3591.47,3582.66 3588.04,3594.1 3582.76,3607.82L3578.8,3618.65C3566.84,3651.74 3560.24,3673.56 3559,3684.12C3558.65,3686.58 3558.47,3688.17 3558.47,3688.87C3558.47,3690.81 3559.09,3692.22 3560.32,3693.1C3561.56,3693.97 3563.93,3694.41 3567.45,3694.41C3569.74,3694.41 3571.59,3694.33 3572.99,3694.15C3574.76,3693.97 3576.03,3694.64 3576.82,3696.13C3577.62,3697.63 3577.92,3699.52 3577.75,3701.81C3577.39,3704.45 3575.9,3706.03 3573.26,3706.56Z"/>
                    </g>
                    <g transform="matrix(0.142918,0,0,0.290877,-8.48582,-344.654)">
                        <path d="M3654.31,3705.5C3652.2,3705.5 3650.3,3704.8 3648.63,3703.39C3646.96,3701.98 3646.12,3700.22 3646.12,3698.11C3646.12,3687.38 3645.86,3675.32 3645.33,3661.94C3644.98,3653.49 3644.8,3645.22 3644.8,3637.13L3644.8,3626.3L3644.54,3622.87C3644.36,3621.99 3644.28,3620.93 3644.28,3619.7C3644.28,3618.65 3644.36,3618.03 3644.54,3617.86L3644.54,3616.8C3643.84,3602.89 3643.48,3581.95 3643.48,3553.97L3643.48,3547.1C3643.48,3545.17 3641.72,3544.2 3638.2,3544.2C3630.81,3544.2 3625.53,3543.06 3622.36,3540.77C3620.43,3539.71 3619.46,3538.22 3619.46,3536.28C3619.46,3534.7 3620.38,3533.38 3622.23,3532.32C3624.08,3531.26 3625.97,3530.74 3627.91,3530.74C3629.49,3530.74 3633.8,3531.09 3640.84,3531.79C3641.72,3531.79 3642.34,3531.88 3642.69,3532.06C3648.15,3532.23 3651.84,3534.47 3653.78,3538.79C3655.72,3543.1 3656.68,3546.66 3656.68,3549.48C3656.68,3564.97 3657.47,3592.95 3659.06,3633.43C3660.12,3655.96 3660.64,3678.22 3660.64,3700.22C3660.64,3701.81 3660.03,3703.08 3658.8,3704.05C3657.56,3705.02 3656.07,3705.5 3654.31,3705.5Z"/>
                    </g>
                    <g transform="matrix(0.142918,0,0,0.290877,-8.48582,-344.654)">
                        <path d="M3745.65,3707.88C3741.95,3707.88 3740.11,3706.12 3740.11,3702.6L3740.11,3697.58L3740.9,3622.61C3741.25,3601.84 3741.43,3588.46 3741.43,3582.48L3741.95,3549.48L3741.95,3544.46L3717.4,3544.46L3717.4,3585.12L3717.67,3619.97C3717.67,3657.1 3716.35,3680.16 3713.71,3689.14C3712.65,3693.36 3709.39,3697.41 3703.94,3701.28C3698.48,3705.15 3693.29,3707.09 3688.36,3707.09C3687.84,3706.91 3687.04,3706.38 3685.99,3705.5C3684.93,3704.62 3684.4,3703.92 3684.4,3703.39C3684.4,3702.16 3685.28,3700.31 3687.04,3697.85L3703.94,3683.59C3704.47,3681.66 3704.73,3679.19 3704.73,3676.2L3704.47,3544.73C3703.24,3544.9 3701.21,3544.99 3698.39,3544.99C3696.46,3544.99 3694.57,3544.11 3692.72,3542.35C3690.87,3540.59 3689.95,3538.66 3689.95,3536.54C3689.95,3533.38 3692.41,3531.79 3697.34,3531.79L3711.33,3532.06L3746.97,3531L3749.08,3531C3751.37,3531 3753.09,3531.79 3754.23,3533.38C3755.38,3534.96 3755.95,3536.81 3755.95,3538.92L3755.16,3544.73L3754.1,3629.74L3753.31,3668.81L3752.51,3703.13C3752.51,3704.36 3751.81,3705.46 3750.4,3706.43C3748.99,3707.39 3747.41,3707.88 3745.65,3707.88Z"/>
                    </g>
                    <g transform="matrix(0.142918,0,0,0.290877,-8.48582,-344.654)">
                        <path d="M3835.15,3636.6C3835.32,3664.06 3836.03,3686.49 3837.26,3703.92C3833.91,3706.56 3830.75,3707.88 3827.76,3707.88C3823.36,3707.88 3821.16,3704.01 3821.16,3696.26L3822.47,3621.55L3821.95,3608.35L3821.95,3601.22C3822.12,3596.3 3822.12,3589.39 3821.95,3580.5C3821.77,3571.61 3821.51,3564.44 3821.16,3558.98C3821.16,3555.82 3821.07,3553.62 3820.89,3552.38C3820.89,3548.86 3820.67,3546.58 3820.23,3545.52C3819.79,3544.46 3818.6,3543.76 3816.67,3543.41L3812.44,3542.35C3808.57,3541.47 3804.52,3541.03 3800.3,3541.03L3799.51,3543.93L3798.45,3549.74L3798.45,3560.83C3798.45,3566.11 3798.63,3581.25 3798.98,3606.24L3799.51,3633.43C3800.03,3651.38 3800.3,3666.34 3800.3,3678.31L3800.03,3700.22C3800.03,3701.81 3799.38,3703.08 3798.06,3704.05C3796.74,3705.02 3795.2,3705.5 3793.43,3705.5C3791.32,3705.5 3789.47,3704.8 3787.89,3703.39C3786.31,3701.98 3785.51,3700.22 3785.51,3698.11L3785.51,3688.34C3785.51,3677.08 3785.43,3668.28 3785.25,3661.94L3785.25,3626.3C3785.25,3625.07 3785.16,3623.93 3784.99,3622.87L3784.99,3619.7C3784.99,3618.65 3785.08,3618.03 3785.25,3617.86L3785.25,3616.8C3785.08,3612.75 3784.99,3606.41 3784.99,3597.79L3785.25,3567.7L3785.51,3554.23L3785.51,3547.37C3784.28,3542.79 3783.67,3539.1 3783.67,3536.28C3783.67,3535.05 3783.84,3533.9 3784.2,3532.85C3785.95,3530.74 3788.51,3529.68 3791.85,3529.68C3793.61,3529.68 3795.28,3530.21 3796.87,3531.26C3799.68,3530.03 3802.5,3529.41 3805.32,3529.41C3810.6,3529.41 3816.76,3529.94 3823.8,3531C3826.61,3531.53 3829.03,3532.63 3831.06,3534.3C3833.08,3535.97 3834.09,3538.04 3834.09,3540.5L3834.09,3549.74C3834.09,3559.42 3834.18,3567.34 3834.36,3573.5L3834.36,3579.84C3834.88,3597.79 3835.15,3616.71 3835.15,3636.6Z"/>
                    </g>
                    <g transform="matrix(0.142918,0,0,0.290877,-8.48582,-344.654)">
                        <path d="M3898.77,3706.56C3895.95,3707.26 3892.96,3707.62 3889.8,3707.62C3883.99,3707.62 3879.45,3705.94 3876.2,3702.6C3872.94,3699.26 3871.32,3694.33 3871.32,3687.82C3871.32,3681.3 3873.03,3671.27 3876.46,3657.72C3879.89,3644.17 3883.11,3633.08 3886.1,3624.45C3888.03,3618.12 3891.29,3609.06 3895.87,3597.26L3899.3,3588.02C3900.53,3584.33 3901.5,3579.36 3902.2,3573.11C3902.91,3566.86 3903.26,3560.39 3903.26,3553.7C3903.26,3548.78 3903.17,3545.26 3902.99,3543.14C3899.83,3542.62 3897.32,3542.26 3895.47,3542.09C3893.62,3541.91 3889.97,3541.74 3884.51,3541.56C3874.31,3541.21 3867.71,3540.15 3864.72,3538.39C3862.78,3537.16 3861.81,3535.66 3861.81,3533.9L3861.81,3525.19C3861.81,3521.85 3861.64,3518.68 3861.28,3515.69C3860.93,3512.7 3860.67,3510.67 3860.49,3509.62C3859.79,3499.41 3861.99,3494.3 3867.09,3494.3C3869.56,3494.3 3871.58,3495.36 3873.16,3497.47C3874.75,3499.58 3875.72,3502.05 3876.07,3504.86C3876.07,3505.92 3875.8,3507.41 3875.28,3509.35L3875.01,3514.37L3874.75,3528.36C3876.51,3528.36 3880.91,3528.71 3887.95,3529.41L3893.76,3529.94L3905.9,3530.47L3910.12,3530.47C3914.88,3530.47 3917.43,3532.76 3917.78,3537.34C3918.66,3542.97 3919.1,3551.15 3919.1,3561.89C3919.1,3567.7 3918.92,3571.57 3918.57,3573.5C3916.99,3582.66 3913.56,3594.1 3908.28,3607.82L3904.32,3618.65C3892.35,3651.74 3885.75,3673.56 3884.51,3684.12C3884.16,3686.58 3883.99,3688.17 3883.99,3688.87C3883.99,3690.81 3884.6,3692.22 3885.84,3693.1C3887.07,3693.97 3889.44,3694.41 3892.96,3694.41C3895.25,3694.41 3897.1,3694.33 3898.51,3694.15C3900.27,3693.97 3901.54,3694.64 3902.34,3696.13C3903.13,3697.63 3903.43,3699.52 3903.26,3701.81C3902.91,3704.45 3901.41,3706.03 3898.77,3706.56Z"/>
                    </g>
                    <g transform="matrix(0.142918,0,0,0.290877,-8.48582,-344.654)">
                        <path d="M4026.02,3649.01C4020.56,3649.01 4017.84,3643.55 4017.84,3632.64C4017.84,3630.88 4018.1,3628.94 4018.63,3626.83C4019.33,3622.61 4019.68,3618.91 4019.68,3615.74L4019.68,3598.85C4019.68,3596.91 4019.51,3591.72 4019.16,3583.27L4018.36,3569.28L4018.36,3566.38C4018.36,3564.09 4018.28,3562.59 4018.1,3561.89C4017.92,3554.32 4017.62,3549.39 4017.18,3547.1C4016.74,3544.82 4015.11,3543.67 4012.29,3543.67L4005.69,3543.93C4004.64,3544.11 4003.14,3544.2 4001.2,3544.2C3995.57,3544.2 3992.58,3542 3992.23,3537.6C3992.23,3533.9 3994.43,3531.18 3998.83,3529.41C4001.99,3529.59 4005.43,3530.12 4009.12,3531L4015.99,3532.32C4017.57,3530.74 4020.12,3529.94 4023.64,3529.94C4025.76,3529.94 4027.56,3530.87 4029.06,3532.72C4030.55,3534.56 4031.3,3536.54 4031.3,3538.66C4031.65,3548.51 4031.83,3557.75 4031.83,3566.38L4032.36,3583.27C4032.36,3587.67 4032.27,3591.45 4032.09,3594.62C4031.91,3598.85 4031.83,3603.51 4031.83,3608.62C4031.83,3611.96 4032.36,3618.21 4033.41,3627.36L4033.94,3632.64C4034.64,3634.22 4034.99,3635.89 4034.99,3637.66C4034.99,3640.65 4034.12,3643.29 4032.36,3645.58C4030.6,3647.86 4028.48,3649.01 4026.02,3649.01Z"/>
                    </g>
                    <g transform="matrix(0.142918,0,0,0.290877,-8.48582,-344.654)">
                        <path d="M4120.27,3707.88C4116.57,3707.88 4114.72,3706.12 4114.72,3702.6L4114.72,3697.58L4115.52,3622.61C4115.87,3601.84 4116.04,3588.46 4116.04,3582.48L4116.57,3549.48L4116.57,3544.46L4092.02,3544.46L4092.02,3585.12L4092.28,3619.97C4092.28,3657.1 4090.96,3680.16 4088.32,3689.14C4087.27,3693.36 4084.01,3697.41 4078.56,3701.28C4073.1,3705.15 4067.91,3707.09 4062.98,3707.09C4062.45,3706.91 4061.66,3706.38 4060.6,3705.5C4059.55,3704.62 4059.02,3703.92 4059.02,3703.39C4059.02,3702.16 4059.9,3700.31 4061.66,3697.85L4078.56,3683.59C4079.08,3681.66 4079.35,3679.19 4079.35,3676.2L4079.08,3544.73C4077.85,3544.9 4075.83,3544.99 4073.01,3544.99C4071.08,3544.99 4069.18,3544.11 4067.34,3542.35C4065.49,3540.59 4064.56,3538.66 4064.56,3536.54C4064.56,3533.38 4067.03,3531.79 4071.95,3531.79L4085.95,3532.06L4121.59,3531L4123.7,3531C4125.99,3531 4127.7,3531.79 4128.85,3533.38C4129.99,3534.96 4130.56,3536.81 4130.56,3538.92L4129.77,3544.73L4128.72,3629.74L4127.92,3668.81L4127.13,3703.13C4127.13,3704.36 4126.43,3705.46 4125.02,3706.43C4123.61,3707.39 4122.03,3707.88 4120.27,3707.88Z"/>
                    </g>
                    <g transform="matrix(0.142918,0,0,0.290877,-8.48582,-344.654)">
                        <path d="M4191.81,3705.5C4189.7,3705.5 4187.81,3704.8 4186.14,3703.39C4184.46,3701.98 4183.63,3700.22 4183.63,3698.11C4183.63,3687.38 4183.36,3675.32 4182.84,3661.94C4182.48,3653.49 4182.31,3645.22 4182.31,3637.13L4182.31,3626.3L4182.04,3622.87C4181.87,3621.99 4181.78,3620.93 4181.78,3619.7C4181.78,3618.65 4181.87,3618.03 4182.04,3617.86L4182.04,3616.8C4181.34,3602.89 4180.99,3581.95 4180.99,3553.97L4180.99,3547.1C4180.99,3545.17 4179.23,3544.2 4175.71,3544.2C4168.32,3544.2 4163.03,3543.06 4159.87,3540.77C4157.93,3539.71 4156.96,3538.22 4156.96,3536.28C4156.96,3534.7 4157.89,3533.38 4159.73,3532.32C4161.58,3531.26 4163.48,3530.74 4165.41,3530.74C4166.99,3530.74 4171.31,3531.09 4178.35,3531.79C4179.23,3531.79 4179.84,3531.88 4180.19,3532.06C4185.65,3532.23 4189.35,3534.47 4191.28,3538.79C4193.22,3543.1 4194.19,3546.66 4194.19,3549.48C4194.19,3564.97 4194.98,3592.95 4196.56,3633.43C4197.62,3655.96 4198.15,3678.22 4198.15,3700.22C4198.15,3701.81 4197.53,3703.08 4196.3,3704.05C4195.07,3705.02 4193.57,3705.5 4191.81,3705.5Z"/>
                    </g>
                    <g transform="matrix(0.142918,0,0,0.290877,-8.48582,-344.654)">
                        <path d="M4272.6,3696.79C4272.77,3699.08 4271.98,3701.06 4270.22,3702.73C4268.46,3704.4 4266.44,3705.33 4264.15,3705.5C4261.51,3705.5 4259.13,3704.45 4257.02,3702.34C4256.67,3699.87 4256.49,3698.02 4256.49,3696.79C4256.49,3695.03 4256.67,3692.04 4257.02,3687.82L4256.49,3680.95L4254.91,3644.52L4253.32,3645.58C4248.75,3648.92 4245.45,3653.01 4243.42,3657.85C4241.4,3662.69 4239.95,3669.07 4239.07,3676.99C4238.54,3682.62 4238.27,3689.4 4238.27,3697.32C4238.27,3702.78 4235.37,3705.5 4229.56,3705.5C4227.27,3705.5 4225.73,3704.4 4224.94,3702.2C4224.15,3700 4223.76,3697.58 4223.76,3694.94L4223.76,3686.63C4223.76,3682.14 4224.11,3677.87 4224.81,3673.82C4224.99,3672.77 4225.43,3670.22 4226.13,3666.17C4226.84,3662.12 4227.85,3658.47 4229.17,3655.21C4230.49,3651.95 4232.29,3649.01 4234.58,3646.37C4239.86,3640.38 4246.46,3635.63 4254.38,3632.11C4252.62,3594.1 4251.74,3570.42 4251.74,3561.1C4251.56,3555.64 4250.46,3551.11 4248.44,3547.5C4246.41,3543.89 4242.23,3541.74 4235.9,3541.03C4230.8,3540.68 4228.51,3538.57 4229.03,3534.7C4229.21,3532.93 4229.83,3531.31 4230.88,3529.81C4231.94,3528.32 4233.26,3527.66 4234.84,3527.83C4255.08,3528.89 4265.64,3544.29 4266.52,3574.03L4268.11,3627.62C4269.16,3663.88 4269.78,3683.06 4269.95,3685.18C4270.48,3687.82 4270.92,3689.66 4271.27,3690.72C4271.8,3692.3 4272.24,3694.33 4272.6,3696.79Z"/>
                    </g>
                    <g transform="matrix(0.142918,0,0,0.290877,-8.48582,-344.654)">
                        <path d="M4339.65,3705.5C4337.72,3705.5 4336.09,3704.89 4334.77,3703.66C4333.45,3702.42 4332.79,3700.93 4332.79,3699.17C4332.79,3695.47 4332.88,3692.04 4333.05,3688.87C4333.58,3684.3 4333.84,3680.95 4333.84,3678.84L4332.26,3647.16C4331.91,3640.47 4331.47,3630.35 4330.94,3616.8C4331.82,3613.98 4332.17,3610.29 4331.99,3605.71L4331.99,3602.54C4331.82,3599.38 4331.73,3592.86 4331.73,3583.01C4331.73,3572.1 4331.64,3565.06 4331.47,3561.89C4330.94,3549.74 4327.77,3543.67 4321.96,3543.67L4316.95,3543.93L4310.88,3543.93C4301.55,3543.93 4296.71,3541.38 4296.36,3536.28C4296.36,3534.52 4297.15,3532.98 4298.73,3531.66C4300.32,3530.34 4302.16,3529.59 4304.27,3529.41C4311.14,3531.35 4318.97,3532.32 4327.77,3532.32C4330.76,3530.74 4333.84,3529.94 4337.01,3529.94C4338.95,3529.94 4340.66,3530.87 4342.16,3532.72C4343.65,3534.56 4344.49,3536.54 4344.67,3538.66C4345.02,3548.86 4345.19,3558.45 4345.19,3567.43L4344.93,3596.21L4344.93,3615.74C4344.93,3628.24 4345.11,3641 4345.46,3654.02L4345.46,3655.87C4347.04,3669.25 4347.84,3677.52 4347.84,3680.69C4348.54,3697.23 4345.81,3705.5 4339.65,3705.5ZM4303.75,3705.5C4301.99,3705.5 4300.45,3704.89 4299.13,3703.66C4297.81,3702.42 4297.15,3700.93 4297.15,3699.17C4297.15,3681.92 4297.41,3665.29 4297.94,3649.27C4298.29,3627.8 4298.47,3611.34 4298.47,3599.9C4298.47,3597.62 4298.38,3595.5 4298.2,3593.57L4298.2,3588.82C4298.2,3580.72 4298.99,3575.26 4300.58,3572.45C4301.46,3571.22 4302.69,3570.6 4304.27,3570.6C4306.03,3570.6 4307.71,3572.8 4309.29,3577.2C4310.7,3580.89 4311.4,3586.26 4311.4,3593.3C4311.4,3600.7 4311.23,3607.65 4310.88,3614.16C4310.7,3620.67 4310.61,3627.45 4310.61,3634.49L4311.14,3665.11L4311.67,3695.21C4311.67,3698.2 4311.01,3700.66 4309.69,3702.6C4308.37,3704.53 4306.39,3705.5 4303.75,3705.5Z"/>
                    </g>
                    <g transform="matrix(0.142918,0,0,0.290877,-8.48582,-344.654)">
                        <path d="M4375.56,3708.41C4373.62,3708.41 4372.65,3707.35 4372.65,3705.24L4372.65,3703.13C4372.83,3702.42 4372.91,3701.63 4372.91,3700.75C4372.91,3700.05 4374.15,3699.17 4376.61,3698.11C4385.41,3695.3 4391.13,3692.39 4393.77,3689.4C4398.88,3683.77 4401.43,3673.82 4401.43,3659.57C4401.43,3656.22 4401.25,3648.22 4400.9,3635.54C4400.19,3621.82 4399.84,3614.6 4399.84,3613.89L4399.32,3593.57C4398.61,3567.17 4398.26,3551.5 4398.26,3546.58L4398.26,3545.52C4397.73,3545.52 4396.9,3545.43 4395.75,3545.26C4394.61,3545.08 4393.33,3544.99 4391.92,3544.99C4388.23,3544.46 4385.68,3544.02 4384.27,3543.67C4383.03,3543.32 4381.28,3541.3 4378.99,3537.6C4378.46,3537.07 4378.19,3536.37 4378.19,3535.49C4378.19,3533.9 4379.12,3532.49 4380.97,3531.26C4382.82,3530.03 4384.71,3529.41 4386.64,3529.41C4394.03,3529.41 4400.28,3529.99 4405.39,3531.13C4410.49,3532.28 4413.04,3533.73 4413.04,3535.49L4413.04,3544.99C4413.04,3561.18 4413.48,3579.75 4414.36,3600.7C4415.24,3619.18 4415.68,3636.86 4415.68,3653.76L4415.68,3662.47C4415.68,3668.63 4415.24,3673.82 4414.36,3678.05C4413.13,3684.56 4410.67,3690.19 4406.97,3694.94C4403.1,3700.4 4397.29,3704.27 4389.55,3706.56C4385.68,3707.79 4381.01,3708.41 4375.56,3708.41Z"/>
                    </g>
                    <g transform="matrix(0.142918,0,0,0.290877,-8.48582,-344.654)">
                        <path d="M4500.43,3707.88C4496.73,3707.88 4494.88,3706.12 4494.88,3702.6L4494.88,3697.58L4495.68,3622.61C4496.03,3601.84 4496.2,3588.46 4496.2,3582.48L4496.73,3549.48L4496.73,3544.46L4472.18,3544.46L4472.18,3585.12L4472.44,3619.97C4472.44,3657.1 4471.12,3680.16 4468.48,3689.14C4467.43,3693.36 4464.17,3697.41 4458.72,3701.28C4453.26,3705.15 4448.07,3707.09 4443.14,3707.09C4442.61,3706.91 4441.82,3706.38 4440.76,3705.5C4439.71,3704.62 4439.18,3703.92 4439.18,3703.39C4439.18,3702.16 4440.06,3700.31 4441.82,3697.85L4458.72,3683.59C4459.24,3681.66 4459.51,3679.19 4459.51,3676.2L4459.24,3544.73C4458.01,3544.9 4455.99,3544.99 4453.17,3544.99C4451.23,3544.99 4449.34,3544.11 4447.49,3542.35C4445.65,3540.59 4444.72,3538.66 4444.72,3536.54C4444.72,3533.38 4447.19,3531.79 4452.11,3531.79L4466.11,3532.06L4501.75,3531L4503.86,3531C4506.15,3531 4507.86,3531.79 4509.01,3533.38C4510.15,3534.96 4510.72,3536.81 4510.72,3538.92L4509.93,3544.73L4508.88,3629.74L4508.08,3668.81L4507.29,3703.13C4507.29,3704.36 4506.59,3705.46 4505.18,3706.43C4503.77,3707.39 4502.19,3707.88 4500.43,3707.88Z"/>
                    </g>
                    <g transform="matrix(0.142918,0,0,0.290877,-8.48582,-344.654)">
                        <path d="M4581.21,3705.5C4579.28,3705.5 4577.65,3704.89 4576.33,3703.66C4575.01,3702.42 4574.35,3700.93 4574.35,3699.17C4574.35,3695.47 4574.44,3692.04 4574.61,3688.87C4575.14,3684.3 4575.4,3680.95 4575.4,3678.84L4573.82,3647.16C4573.47,3640.47 4573.03,3630.35 4572.5,3616.8C4573.38,3613.98 4573.73,3610.29 4573.56,3605.71L4573.56,3602.54C4573.38,3599.38 4573.29,3592.86 4573.29,3583.01C4573.29,3572.1 4573.2,3565.06 4573.03,3561.89C4572.5,3549.74 4569.33,3543.67 4563.52,3543.67L4558.51,3543.93L4552.44,3543.93C4543.11,3543.93 4538.27,3541.38 4537.91,3536.28C4537.91,3534.52 4538.71,3532.98 4540.29,3531.66C4541.88,3530.34 4543.72,3529.59 4545.84,3529.41C4552.7,3531.35 4560.53,3532.32 4569.33,3532.32C4572.32,3530.74 4575.4,3529.94 4578.57,3529.94C4580.51,3529.94 4582.22,3530.87 4583.72,3532.72C4585.22,3534.56 4586.05,3536.54 4586.23,3538.66C4586.58,3548.86 4586.76,3558.45 4586.76,3567.43L4586.49,3596.21L4586.49,3615.74C4586.49,3628.24 4586.67,3641 4587.02,3654.02L4587.02,3655.87C4588.6,3669.25 4589.4,3677.52 4589.4,3680.69C4590.1,3697.23 4587.37,3705.5 4581.21,3705.5ZM4545.31,3705.5C4543.55,3705.5 4542.01,3704.89 4540.69,3703.66C4539.37,3702.42 4538.71,3700.93 4538.71,3699.17C4538.71,3681.92 4538.97,3665.29 4539.5,3649.27C4539.85,3627.8 4540.03,3611.34 4540.03,3599.9C4540.03,3597.62 4539.94,3595.5 4539.76,3593.57L4539.76,3588.82C4539.76,3580.72 4540.56,3575.26 4542.14,3572.45C4543.02,3571.22 4544.25,3570.6 4545.84,3570.6C4547.6,3570.6 4549.27,3572.8 4550.85,3577.2C4552.26,3580.89 4552.96,3586.26 4552.96,3593.3C4552.96,3600.7 4552.79,3607.65 4552.44,3614.16C4552.26,3620.67 4552.17,3627.45 4552.17,3634.49L4552.7,3665.11L4553.23,3695.21C4553.23,3698.2 4552.57,3700.66 4551.25,3702.6C4549.93,3704.53 4547.95,3705.5 4545.31,3705.5Z"/>
                    </g>
                    <g transform="matrix(0.219253,0,0,0.446238,-268.067,-1505.94)">
                        <path d="M4310.32,5008.33C4306.06,5009.39 4301.53,5009.93 4296.73,5009.93C4287.94,5009.93 4281.08,5007.39 4276.15,5002.33C4271.22,4997.27 4268.76,4989.81 4268.76,4979.95C4268.76,4970.09 4271.36,4954.9 4276.55,4934.39C4281.75,4913.87 4286.61,4897.09 4291.14,4884.03C4294.07,4874.44 4299,4860.72 4305.93,4842.86L4311.12,4828.88C4312.99,4823.28 4314.45,4815.75 4315.52,4806.3C4316.58,4796.84 4317.12,4787.04 4317.12,4776.92C4317.12,4769.46 4316.98,4764.13 4316.72,4760.93C4311.92,4760.13 4308.12,4759.6 4305.33,4759.33C4302.53,4759.07 4297,4758.8 4288.74,4758.53C4273.29,4758 4263.3,4756.4 4258.77,4753.74C4255.84,4751.87 4254.37,4749.61 4254.37,4746.94L4254.37,4733.76C4254.37,4728.69 4254.1,4723.9 4253.57,4719.37C4253.04,4714.84 4252.64,4711.77 4252.37,4710.18C4251.31,4694.72 4254.64,4686.99 4262.36,4686.99C4266.09,4686.99 4269.16,4688.59 4271.56,4691.79C4273.95,4694.99 4275.42,4698.72 4275.95,4702.98C4275.95,4704.58 4275.55,4706.85 4274.75,4709.78L4274.35,4717.37L4273.95,4738.55C4276.62,4738.55 4283.28,4739.08 4293.94,4740.15L4302.73,4740.95L4321.11,4741.75L4327.51,4741.75C4334.7,4741.75 4338.57,4745.21 4339.1,4752.14C4340.43,4760.67 4341.1,4773.06 4341.1,4789.31C4341.1,4798.1 4340.83,4803.96 4340.3,4806.9C4337.9,4820.75 4332.7,4838.07 4324.71,4858.85L4318.72,4875.24C4300.6,4925.33 4290.61,4958.37 4288.74,4974.36C4288.21,4978.09 4287.94,4980.48 4287.94,4981.55C4287.94,4984.48 4288.87,4986.61 4290.74,4987.94C4292.6,4989.28 4296.2,4989.94 4301.53,4989.94C4304.99,4989.94 4307.79,4989.81 4309.92,4989.54C4312.59,4989.28 4314.52,4990.28 4315.72,4992.54C4316.92,4994.81 4317.38,4997.67 4317.12,5001.13C4316.58,5005.13 4314.32,5007.53 4310.32,5008.33Z"/>
                    </g>
                    <g transform="matrix(0.219253,0,0,0.446238,-268.067,-1505.94)">
                        <path d="M4442.21,5015.52C4434.49,5015.52 4428.82,5012.99 4425.23,5007.93C4421.63,5002.86 4419.83,4996.2 4419.83,4987.94C4419.83,4978.62 4421.7,4969.03 4425.43,4959.17C4425.96,4957.04 4426.56,4954.31 4427.23,4950.97C4427.89,4947.64 4428.76,4944.51 4429.82,4941.58C4439.41,4920.53 4445.88,4900.55 4449.21,4881.63C4452.54,4862.72 4454.2,4843 4454.2,4822.48C4454.2,4813.95 4453.94,4801.43 4453.4,4784.91C4453.14,4775.59 4451.4,4769.39 4448.21,4766.33C4445.01,4763.26 4439.95,4761.73 4433.02,4761.73C4430.89,4761.73 4426.36,4762 4419.43,4762.53C4413.04,4763.06 4407.98,4763.33 4404.24,4763.33C4402.38,4763.86 4399.78,4763.53 4396.45,4762.33C4393.12,4761.13 4390.19,4759.33 4387.66,4756.94C4385.13,4754.54 4383.86,4751.87 4383.86,4748.94C4383.86,4746.55 4384.53,4744.55 4385.86,4742.95C4387.19,4741.08 4388.92,4739.95 4391.06,4739.55C4393.19,4739.15 4395.98,4739.08 4399.45,4739.35C4402.65,4739.62 4407.98,4739.75 4415.44,4739.75C4429.29,4739.75 4440.55,4740.75 4449.21,4742.75C4457.87,4744.75 4463.93,4749.34 4467.39,4756.54C4469.79,4760.8 4471.26,4767.46 4471.79,4776.52C4472.85,4789.31 4473.39,4800.9 4473.39,4811.29C4473.39,4852.06 4466.86,4893.49 4453.8,4935.59C4452.47,4940.12 4450.21,4945.31 4447.01,4951.17C4443.81,4957.04 4441.41,4962.77 4439.82,4968.36C4438.22,4973.95 4437.42,4982.22 4437.42,4993.14C4445.14,4993.14 4449.01,4995.67 4449.01,5000.73C4449.01,5003.93 4447.88,5007.13 4445.61,5010.32C4443.35,5013.52 4442.21,5015.25 4442.21,5015.52ZM4395.45,5065.08C4391.45,5065.08 4388.92,5063.21 4387.86,5059.48C4386.79,5055.75 4386.39,5049.23 4386.66,5039.9L4387.06,5017.12L4387.46,4991.54L4388.26,4958.77C4390.12,4906.55 4390.92,4878.03 4390.66,4873.24C4390.39,4867.91 4389.59,4856.99 4388.26,4840.47C4387.99,4837.54 4387.59,4833.07 4387.06,4827.08C4386.53,4821.08 4386.39,4815.69 4386.66,4810.89C4386.66,4808.49 4387.86,4806.3 4390.26,4804.3C4392.65,4802.3 4395.19,4801.3 4397.85,4801.3C4402.65,4801.3 4405.84,4802.36 4407.44,4804.5C4409.04,4806.63 4409.84,4810.09 4409.84,4814.89L4409.44,4820.48C4409.17,4822.35 4409.04,4824.35 4409.04,4826.48C4408.77,4837.4 4408.77,4853.19 4409.04,4873.84C4409.31,4894.49 4409.44,4914.54 4409.44,4933.99L4409.84,4968.36C4409.84,4970.23 4409.57,4975.95 4409.04,4985.55C4408.51,4990.34 4407.98,4993.54 4407.44,4995.14C4406.64,4998.34 4406.24,5001.13 4406.24,5003.53C4406.24,5005.66 4406.91,5006.73 4408.24,5006.73C4408.24,5016.85 4408.51,5025.25 4409.04,5031.91L4409.44,5039.9C4410.77,5043.36 4411.44,5046.03 4411.44,5047.89C4411.17,5052.16 4409.44,5056.09 4406.24,5059.68C4403.05,5063.28 4399.45,5065.08 4395.45,5065.08Z"/>
                    </g>
                    <g transform="matrix(0.219253,0,0,0.446238,-268.067,-1505.94)">
                        <path d="M4579.7,4765.33C4577.57,4765.33 4575.84,4765.2 4574.5,4764.93L4574.5,4766.53C4574.5,4793.44 4576.63,4831.27 4580.9,4880.03C4585.43,4931.99 4587.69,4969.82 4587.69,4993.54C4587.69,4996.74 4586.29,4999.53 4583.49,5001.93C4580.7,5004.33 4577.57,5005.53 4574.1,5005.53L4566.51,5000.33C4566.51,4994.47 4566.38,4989.28 4566.11,4984.75L4565.71,4969.56L4566.51,4955.97C4565.44,4952.77 4563.38,4924 4560.31,4869.64C4557.25,4815.29 4555.45,4779.45 4554.92,4762.13L4546.13,4761.73C4527.74,4761.73 4516.15,4760.13 4511.36,4756.94C4508.69,4755.07 4507.36,4752.67 4507.36,4749.74C4507.36,4747.61 4508.69,4745.68 4511.36,4743.95C4514.02,4742.22 4516.82,4741.35 4519.75,4741.35C4527.21,4741.35 4536.27,4741.88 4546.93,4742.95C4557.32,4744.28 4566.38,4744.95 4574.1,4744.95L4580.5,4744.95C4588.76,4744.95 4592.89,4748.14 4592.89,4754.54C4592.89,4757.74 4591.56,4760.33 4588.89,4762.33C4586.23,4764.33 4583.16,4765.33 4579.7,4765.33Z"/>
                    </g>
                </g>
                <g transform="matrix(0.142918,0,0,0.290877,250.498,-371.618)">
                    <g id="Logo">
                        <path d="M964.875,492.845C969.681,491.391 995.337,463.737 995.337,463.737C995.337,463.737 958.282,485.734 949.597,487.01C940.911,488.285 924.765,487.514 924.765,487.514C939.746,507.329 961.229,558.06 982.859,571.994C1004.49,585.928 1034.6,577.72 1086.87,542.778C1139.14,507.836 1174.32,439.933 1174.32,439.933C1166.87,426.556 1138.43,358.223 1155.29,338.994C1172.14,319.766 1199.23,334.128 1205.46,361.156C1211.69,388.183 1187.75,434.892 1187.75,434.892L1196.56,449.434C1208.22,471.332 1266.96,536.637 1306,572.786C1345.03,608.935 1384.74,693.968 1341.36,786.899C1297.99,879.83 1138.06,1014.12 1070.32,1067C1002.58,1119.88 980.824,1097.76 946.882,1074.02C912.939,1050.27 777.901,891.468 777.901,891.468C777.901,891.468 736.958,965.704 732.36,993.345C727.762,1020.99 797.795,1234.21 809.848,1278.52C821.901,1322.83 823.972,1365.54 823.972,1365.54C837.446,1382.04 850.004,1404.96 841.981,1468.5C833.959,1532.04 790.129,1578.44 749.949,1604.38C651.338,1668.04 549.809,1636.8 539.694,1634.67C529.579,1632.55 529.975,1631.44 512.895,1635.66C406.824,1661.85 322.372,1595.16 290.386,1509.98C258.399,1424.81 274.428,1297.39 328.036,1218.58C381.643,1139.77 388.505,1081.35 386.33,1066.66C378.613,1014.55 313.616,1004.46 300.735,1005.23C267.234,1007.24 245.874,1031.39 242.326,1074.46C238.777,1117.53 246.791,1131.86 254.8,1140.69C268.594,1155.9 289.265,1150.49 289.265,1150.49C267.306,1166.9 245.455,1146.43 235.908,1131.05C226.36,1115.67 229.345,1072.59 229.345,1072.59C230.429,1053.7 236.888,1008.22 286.322,992.194C351.258,971.139 403.991,1032.47 400.854,1073.25C389.713,1218.08 312.472,1201.82 288.513,1365.89C261.663,1549.75 367.365,1605.74 417.854,1622.24C468.342,1638.74 500.875,1624.12 500.875,1624.12C346.95,1579.92 358.01,1420.85 362.791,1390.24C367.572,1359.62 382.94,1351.21 382.94,1351.21C382.758,1324.41 385.786,1302.64 415.962,1228.58C474.666,1084.51 531.503,1033.67 563.576,1041.94C607.574,1053.29 612.092,1074.25 634.09,1289.79C656.088,1505.33 605.886,1558.38 587.98,1581.9C570.073,1605.43 540.701,1624.14 540.701,1624.14C592.254,1649.89 697.913,1617.21 705.573,1614.15C777.781,1585.37 812.602,1524.71 818.267,1509.94C840.765,1451.25 830.119,1406.8 826.832,1396.53C823.545,1386.27 820.325,1384.46 820.325,1384.46C822.209,1389.99 821.411,1395.6 819.991,1416.51C818.572,1437.41 799.004,1461.53 789.127,1423.41C779.249,1385.3 795.856,1368.5 798.135,1365.62C800.413,1362.74 807.036,1363.32 807.036,1363.32L811.652,1362.93C812.227,1357.23 810.592,1327.25 807.001,1309.96C794.162,1248.15 749.088,1104.3 735.84,1052.57C722.593,1000.84 723.728,990.105 734.038,958.131C744.349,926.156 786.47,866.18 784.446,833.496C781.411,784.495 761.07,778.622 774.662,754.22C803.675,702.136 810.205,646.724 810.555,630.762C811.351,594.538 798.971,605.658 776.6,620.357C743.852,641.873 721.947,694.307 719.973,698.634C716.322,706.635 702.258,738.581 686.755,732.759C671.252,726.937 675.612,703.448 675.612,703.448C675.612,703.448 668.581,727.159 653.058,743.437C637.536,759.715 625.872,745.792 622.769,738.328C619.666,730.864 622.275,713.109 622.275,713.109C622.275,713.109 610.677,731.297 598.875,738.687C587.073,746.078 581.351,740.957 578.058,739.298C565.552,732.997 575.464,700.361 575.464,700.361C575.464,700.361 571.213,704.316 560.218,715.14C541.847,733.225 527.918,723.217 522.969,710.918C518.021,698.619 546.124,663.341 548.767,657.554C551.41,651.767 521.26,642.342 516.71,639.996C487.302,624.839 453.943,596.422 444.63,605.051C428.615,619.89 447.378,658.654 458.51,686.528C475.19,728.296 476.041,729.837 469.801,763.347C463.561,796.857 467.969,822.45 469.298,830.734C474.349,862.218 517.681,915.308 523.5,942.798C529.319,970.288 526.588,975.091 523.545,978.824C509.743,995.759 515.779,979.137 516.682,968.681C517.584,958.225 513.939,935.24 494.561,907.854C447.035,840.686 455.536,775.95 457.22,760.86C458.904,745.769 465.266,736.029 446.496,689.31C427.725,642.59 427.452,608.139 437.611,592.803C447.771,577.467 522.72,630.718 532.366,634.448C542.013,638.177 555.362,647.085 558.642,649.261C561.923,651.438 571.323,637.422 575.995,637.761C580.668,638.1 575.025,644.814 552.93,673.222C530.835,701.631 530.465,711.571 540.22,713.016C549.975,714.461 573.425,687.424 580.026,680.809C586.628,674.195 591.759,662.881 595.21,653.112C598.66,643.343 606.065,632.537 614.906,629.793C623.746,627.048 617.685,652.211 614.648,659.484C611.61,666.757 596.085,681.104 589.33,693.082C574.988,718.508 579.793,729.82 587.501,731.994C595.208,734.168 623.423,695.364 625.874,691.396C628.325,687.428 628.158,669.174 638.873,652.38C649.589,635.585 653.538,648.889 652.424,658.748C651.31,668.607 642.152,687.879 636.643,693.642C631.134,699.405 629.959,726.398 629.086,729.04C628.213,731.682 629.98,744.839 640.914,739.751C651.848,734.663 671.543,691.512 673.986,684.7C676.429,677.888 675.925,660.096 676.622,649.626C677.32,639.155 684.653,636.206 689.97,644.805C695.288,653.404 689.908,657.215 684.394,685.676C678.88,714.136 682.237,719.131 690.984,722.564C699.732,725.996 708.508,701.649 719.925,677.239C731.342,652.829 739.449,636.873 769.171,613.232C798.893,589.592 817.693,581.425 817.825,626.242C817.956,671.059 814.075,699.753 779.926,756.547C768.573,775.428 790.541,798.678 793.76,840.625C794.889,855.34 783.177,878.671 783.177,878.671C783.177,878.671 901.568,1003.24 932.373,1035.89C963.178,1068.56 987.274,1083.65 1010.99,1078.24C1069.62,1064.86 1221.84,923.198 1296.34,830.096C1370.84,736.994 1341.83,659.419 1336.71,636.855C1331.59,614.291 1317.84,605.977 1277.08,564.42C1180.43,465.886 1179.94,449.499 1179.56,450.246C1159.45,490.48 1122.39,525.542 1085.07,556.507C1047.74,587.473 1022.3,588.513 998.357,585.854C974.41,583.194 955.325,551.02 949.491,537.448C943.657,523.876 926.65,495.695 919.444,486.653C912.237,477.611 942.994,480.109 946.67,479.883C950.345,479.657 952.452,475.002 954.61,471.588C956.767,468.174 958.657,464.721 964.003,464.51C969.348,464.299 988.354,458.823 993.966,456.685C999.577,454.548 1003.13,454.089 1008.83,454.332C1014.53,454.576 991.588,478.273 981.473,485.668C971.358,493.062 964.875,492.845 964.875,492.845ZM813.872,1380.64C813.872,1380.64 802.182,1372.27 800,1385.44C797.818,1398.6 798.206,1441.67 805.549,1428.97C810.974,1419.58 813.216,1410.53 813.872,1380.64ZM394.83,1364.76C382.553,1415.97 401.759,1433.59 405.273,1413.88C413.273,1368.99 394.83,1364.76 394.83,1364.76ZM1182.89,425.486C1182.89,425.486 1215.76,360.727 1185.7,341.822C1155.64,322.917 1161.41,375.874 1167.75,388.68C1173.1,399.473 1182.89,425.486 1182.89,425.486ZM382.288,1371.01C382.288,1371.01 368.043,1384.69 371.01,1427.57C373.976,1470.44 376.151,1584.67 524.337,1618.16C524.337,1618.16 587.476,1592.94 614.04,1507.73C624.793,1473.24 635.757,1391.82 627.804,1311.71C619.851,1231.59 612.54,1055.57 564.285,1052.39C526.002,1049.88 486.748,1107.16 460.667,1159.21C434.587,1211.26 393.702,1296.92 394.186,1345.41C394.186,1345.41 409.423,1356.75 412.894,1366.81C416.365,1376.87 423.916,1422.5 404.871,1429.52C385.825,1436.55 381.856,1411.07 381.403,1398.07C381.088,1389.02 380.694,1385.45 382.288,1371.01Z" style="stroke:black;stroke-width:7.33px;"/>
                    </g>
                </g>
            </g>
        </g>
    </g>
</svg>
